<mxfile host="Electron" agent="Mozilla/5.0 (Windows NT 10.0; Win64; x64) AppleWebKit/537.36 (KHTML, like Gecko) draw.io/25.0.1 Chrome/128.0.6613.186 Electron/32.2.6 Safari/537.36" version="25.0.1">
  <diagram name="Page-1" id="52a04d89-c75d-2922-d76d-85b35f80e030">
    <mxGraphModel dx="1050" dy="629" grid="0" gridSize="10" guides="1" tooltips="1" connect="1" arrows="1" fold="1" page="1" pageScale="1" pageWidth="1100" pageHeight="850" background="none" math="0" shadow="0">
      <root>
        <mxCell id="0" />
        <mxCell id="1" parent="0" />
        <mxCell id="lEwAJ0RQl7pgsjZMFvnX-1" value="" style="group" vertex="1" connectable="0" parent="1">
          <mxGeometry x="28" y="63" width="767.5" height="512.5" as="geometry" />
        </mxCell>
        <mxCell id="21ea969265ad0168-30" value="&lt;font style=&quot;font-size: 14px;&quot; face=&quot;Times New Roman&quot;&gt;Договоры&lt;/font&gt;" style="html=1;rounded=0;shadow=0;comic=0;labelBackgroundColor=none;strokeWidth=1;fontFamily=Verdana;fontSize=12;align=center;shape=mxgraph.ios7ui.horLines;" parent="lEwAJ0RQl7pgsjZMFvnX-1" vertex="1">
          <mxGeometry x="632.5" y="27.5" width="135" height="50" as="geometry" />
        </mxCell>
        <mxCell id="17472293e6e8944d-4" value="&lt;font style=&quot;font-size: 14px;&quot; face=&quot;Times New Roman&quot;&gt;Профессии&lt;/font&gt;" style="html=1;rounded=0;shadow=0;comic=0;labelBackgroundColor=none;strokeWidth=1;fontFamily=Verdana;fontSize=12;align=center;shape=mxgraph.ios7ui.horLines;" parent="lEwAJ0RQl7pgsjZMFvnX-1" vertex="1">
          <mxGeometry x="632.5" y="457.5" width="135" height="50" as="geometry" />
        </mxCell>
        <mxCell id="wgmax7NWsQz4gbhPi8aC-3" value="&lt;font style=&quot;font-size: 14px;&quot; face=&quot;Times New Roman&quot;&gt;Кадры&lt;/font&gt;" style="rounded=1;whiteSpace=wrap;html=1;" parent="lEwAJ0RQl7pgsjZMFvnX-1" vertex="1">
          <mxGeometry y="22.5" width="120" height="60" as="geometry" />
        </mxCell>
        <mxCell id="wgmax7NWsQz4gbhPi8aC-5" value="&lt;font style=&quot;font-size: 14px;&quot; face=&quot;Times New Roman&quot;&gt;Воспитанники&lt;/font&gt;" style="rounded=1;whiteSpace=wrap;html=1;" parent="lEwAJ0RQl7pgsjZMFvnX-1" vertex="1">
          <mxGeometry y="452.5" width="120" height="60" as="geometry" />
        </mxCell>
        <mxCell id="wgmax7NWsQz4gbhPi8aC-7" value="&lt;font style=&quot;font-size: 14px;&quot; face=&quot;Times New Roman&quot;&gt;Заключение&lt;/font&gt;&lt;div&gt;&lt;font style=&quot;font-size: 14px;&quot; face=&quot;Times New Roman&quot;&gt;договора&lt;/font&gt;&lt;/div&gt;" style="ellipse;whiteSpace=wrap;html=1;aspect=fixed;" parent="lEwAJ0RQl7pgsjZMFvnX-1" vertex="1">
          <mxGeometry x="322.5" width="105" height="105" as="geometry" />
        </mxCell>
        <mxCell id="wgmax7NWsQz4gbhPi8aC-8" value="" style="endArrow=classic;html=1;rounded=0;entryX=1;entryY=0.5;entryDx=0;entryDy=0;" parent="lEwAJ0RQl7pgsjZMFvnX-1" target="wgmax7NWsQz4gbhPi8aC-7" edge="1">
          <mxGeometry relative="1" as="geometry">
            <mxPoint x="632.5" y="52" as="sourcePoint" />
            <mxPoint x="522.5" y="52" as="targetPoint" />
          </mxGeometry>
        </mxCell>
        <mxCell id="wgmax7NWsQz4gbhPi8aC-9" value="Трудовой договор" style="edgeLabel;resizable=0;html=1;;align=center;verticalAlign=middle;fontFamily=Times New Roman;fontSize=14;" parent="wgmax7NWsQz4gbhPi8aC-8" connectable="0" vertex="1">
          <mxGeometry relative="1" as="geometry" />
        </mxCell>
        <mxCell id="wgmax7NWsQz4gbhPi8aC-10" value="" style="endArrow=classic;html=1;rounded=0;entryX=1;entryY=0.5;entryDx=0;entryDy=0;" parent="lEwAJ0RQl7pgsjZMFvnX-1" edge="1">
          <mxGeometry relative="1" as="geometry">
            <mxPoint x="322.5" y="52.5" as="sourcePoint" />
            <mxPoint x="120" y="52.66" as="targetPoint" />
          </mxGeometry>
        </mxCell>
        <mxCell id="wgmax7NWsQz4gbhPi8aC-11" value="Трудовой договор" style="edgeLabel;resizable=0;html=1;;align=center;verticalAlign=middle;fontFamily=Times New Roman;fontSize=14;" parent="wgmax7NWsQz4gbhPi8aC-10" connectable="0" vertex="1">
          <mxGeometry relative="1" as="geometry" />
        </mxCell>
        <mxCell id="wgmax7NWsQz4gbhPi8aC-12" value="" style="endArrow=classic;html=1;rounded=0;entryX=0.5;entryY=0;entryDx=0;entryDy=0;" parent="lEwAJ0RQl7pgsjZMFvnX-1" target="wgmax7NWsQz4gbhPi8aC-5" edge="1">
          <mxGeometry width="50" height="50" relative="1" as="geometry">
            <mxPoint x="59.660000000000025" y="82.5" as="sourcePoint" />
            <mxPoint x="59.5" y="192.5" as="targetPoint" />
          </mxGeometry>
        </mxCell>
        <mxCell id="wgmax7NWsQz4gbhPi8aC-4" value="&lt;font style=&quot;font-size: 14px;&quot; face=&quot;Times New Roman&quot;&gt;Предоставление&lt;/font&gt;&lt;div&gt;&lt;font style=&quot;font-size: 14px;&quot; face=&quot;Times New Roman&quot;&gt;услуг&lt;/font&gt;&lt;/div&gt;" style="ellipse;whiteSpace=wrap;html=1;aspect=fixed;" parent="lEwAJ0RQl7pgsjZMFvnX-1" vertex="1">
          <mxGeometry x="12.5" y="222.5" width="100" height="100" as="geometry" />
        </mxCell>
        <mxCell id="wgmax7NWsQz4gbhPi8aC-13" value="&lt;font style=&quot;font-size: 14px;&quot; face=&quot;Times New Roman&quot;&gt;Подбор кадров&lt;/font&gt;" style="ellipse;whiteSpace=wrap;html=1;aspect=fixed;" parent="lEwAJ0RQl7pgsjZMFvnX-1" vertex="1">
          <mxGeometry x="650" y="222.5" width="100" height="100" as="geometry" />
        </mxCell>
        <mxCell id="wgmax7NWsQz4gbhPi8aC-15" value="" style="endArrow=classic;html=1;rounded=0;entryX=0.5;entryY=1;entryDx=0;entryDy=0;" parent="lEwAJ0RQl7pgsjZMFvnX-1" target="wgmax7NWsQz4gbhPi8aC-13" edge="1">
          <mxGeometry relative="1" as="geometry">
            <mxPoint x="699.58" y="457.5" as="sourcePoint" />
            <mxPoint x="700.0400000000001" y="344.5" as="targetPoint" />
          </mxGeometry>
        </mxCell>
        <mxCell id="wgmax7NWsQz4gbhPi8aC-16" value="&lt;font style=&quot;font-size: 14px;&quot; face=&quot;Times New Roman&quot;&gt;Вакансии&lt;/font&gt;" style="edgeLabel;resizable=0;html=1;;align=center;verticalAlign=middle;" parent="wgmax7NWsQz4gbhPi8aC-15" connectable="0" vertex="1">
          <mxGeometry relative="1" as="geometry" />
        </mxCell>
        <mxCell id="wgmax7NWsQz4gbhPi8aC-17" value="" style="endArrow=classic;html=1;rounded=0;exitX=0.5;exitY=0;exitDx=0;exitDy=0;" parent="lEwAJ0RQl7pgsjZMFvnX-1" source="wgmax7NWsQz4gbhPi8aC-13" edge="1">
          <mxGeometry relative="1" as="geometry">
            <mxPoint x="699.7" y="217.5" as="sourcePoint" />
            <mxPoint x="699.66" y="77.5" as="targetPoint" />
          </mxGeometry>
        </mxCell>
        <mxCell id="wgmax7NWsQz4gbhPi8aC-18" value="&lt;font style=&quot;font-size: 14px;&quot; face=&quot;Times New Roman&quot;&gt;Вакансии&lt;/font&gt;" style="edgeLabel;resizable=0;html=1;;align=center;verticalAlign=middle;" parent="wgmax7NWsQz4gbhPi8aC-17" connectable="0" vertex="1">
          <mxGeometry relative="1" as="geometry" />
        </mxCell>
      </root>
    </mxGraphModel>
  </diagram>
</mxfile>
